<svg width="143" height="128" viewBox="0 0 143 128" fill="none" xmlns="http://www.w3.org/2000/svg">
<path opacity="0.972" fill-rule="evenodd" clip-rule="evenodd" d="M143 66.6556C143 66.7884 143 66.9212 143 67.0539C142.153 67.0881 141.314 67.0217 140.484 66.8548C138.041 65.8734 135.614 64.8555 133.202 63.8008C123.549 60.7065 113.883 57.6968 104.205 54.7718C108.258 58.4956 111.458 62.8552 113.804 67.8506C116.112 73.5221 116.466 79.3202 114.863 85.2448C113.989 88.4519 112.929 91.5944 111.686 94.6722C109.75 98.5992 107.852 102.538 105.992 106.49C104.975 109.416 104.092 112.381 103.344 115.386C103.181 116.622 103.137 117.861 103.212 119.104C103.86 121.979 104.5 124.856 105.131 127.734C105.087 127.823 105.043 127.911 104.999 128C104.332 127.283 103.869 126.442 103.609 125.477C103.245 123.413 103.024 121.332 102.947 119.237C100.608 108.614 98.2684 97.9917 95.9292 87.3693C94.6501 93.7041 92.002 99.3694 87.9847 104.365C83.8845 108.846 78.8309 111.656 72.8241 112.797C70.1079 113.398 67.3714 113.885 64.6148 114.257C60.7264 114.464 56.8424 114.73 52.963 115.054C49.6579 115.639 46.392 116.392 43.1648 117.311C41.9792 117.861 40.8318 118.481 39.7222 119.17C37.4912 121.253 35.2402 123.311 32.9694 125.344C33.265 124.119 33.927 123.079 34.9556 122.224C36.4266 121.015 37.9714 119.908 39.5898 118.905C47.4504 111.597 55.3508 104.338 63.2907 97.1286C58.2405 98.6159 53.0766 99.1912 47.7991 98.8548C42.2291 98.3963 37.3741 96.316 33.2343 92.6141C31.5792 91.1314 30.0124 89.5602 28.5338 87.9004C27.298 86.3956 26.0621 84.8907 24.8264 83.3859C22.6524 80.0436 20.4457 76.7241 18.206 73.4274C16.0303 70.891 13.7574 68.4346 11.387 66.0581C10.2838 65.2833 9.13627 64.5752 7.94444 63.9336C5.29795 63.1006 2.6498 62.2817 0 61.4772C0 61.3444 0 61.2116 0 61.0788C0.936597 61.0338 1.86345 61.1002 2.78056 61.278C4.67361 61.9395 6.48318 62.7804 8.20926 63.8008C18.4458 67.0458 28.6853 70.2326 38.9278 73.361C33.8899 68.8579 30.2928 63.3917 28.1366 56.9627C27.2023 53.2843 27.0258 49.5664 27.6069 45.8091C27.903 44.0592 28.3002 42.3331 28.7986 40.6307C29.6292 38.1319 30.5118 35.6534 31.4468 33.195C33.3746 29.4172 35.2283 25.6108 37.0079 21.7759C37.9977 18.8866 38.8804 15.9655 39.656 13.0124C39.8561 11.6021 39.9002 10.1857 39.7884 8.76349C39.169 5.88056 38.529 3.00361 37.8685 0.13278C37.9347 0.0885245 38.0009 0.0442556 38.0671 0C38.643 0.711515 39.0844 1.5082 39.3912 2.39004C39.8043 4.62913 40.0691 6.88637 40.1856 9.16183C42.4759 19.6282 44.815 30.0735 47.2032 40.4979C48.4573 34.2659 51.0613 28.6891 55.0153 23.7676C57.6297 20.7639 60.7853 18.5287 64.4824 17.0622C68.8628 15.4932 73.3647 14.4309 77.988 13.8755C81.9169 13.6146 85.845 13.349 89.7722 13.0788C92.9802 12.5063 96.158 11.798 99.3056 10.9544C100.704 10.4304 102.028 9.76651 103.278 8.96266C105.553 6.83578 107.848 4.73346 110.163 2.6556C109.796 3.98676 109.046 5.11539 107.912 6.04149C106.476 7.25935 104.932 8.32159 103.278 9.22822C95.4217 16.4869 87.5654 23.7455 79.7093 31.0042C85.8622 29.1102 92.1295 28.6676 98.5111 29.6763C102.406 30.5451 105.893 32.2271 108.971 34.722C112.364 37.7255 115.431 41.0229 118.174 44.6141C120.48 48.1336 122.819 51.6301 125.191 55.1037C127.283 57.4233 129.424 59.7026 131.613 61.9419C132.681 62.7025 133.784 63.4106 134.923 64.0664C137.632 64.8908 140.324 65.7539 143 66.6556ZM75.075 35.1867C75.0661 36.7462 75.3088 38.2954 75.8032 39.834C77.1662 43.2787 79.0642 46.3769 81.4968 49.1286C81.4871 52.6053 82.5023 55.7479 84.5421 58.556C85.7029 59.9235 87.1373 60.8752 88.8454 61.4108C90.7146 61.6157 91.487 60.7969 91.1625 58.9544C91.0665 58.6292 90.9341 58.3193 90.7653 58.0249C87.6316 55.2365 84.6745 52.2711 81.894 49.1286C81.8173 48.6369 81.8394 48.1502 81.9602 47.6681C87.3986 49.331 92.8273 51.035 98.2463 52.7801C96.7154 53.5171 95.4134 54.5573 94.3403 55.9004C92.2252 58.7253 90.5922 61.8236 89.4412 65.195C86.7418 66.6186 84.7115 68.6987 83.3505 71.4357C82.3546 73.4093 82.0457 75.4896 82.4236 77.6764C82.7953 78.8882 83.6118 79.3972 84.8732 79.2033C85.7601 78.6662 86.356 77.8917 86.6607 76.8797C87.3878 73.0545 88.3588 69.2924 89.5736 65.5934C89.9561 65.31 90.3755 65.0887 90.8315 64.9295C91.0214 65.1578 91.1317 65.4234 91.1625 65.7261C92.3461 71.0423 93.4937 76.3535 94.6051 81.6598C93.0081 80.5208 91.2206 79.879 89.2426 79.7344C86.0175 79.3871 82.8178 79.542 79.6431 80.1992C76.5573 78.3967 73.225 77.7106 69.6463 78.1411C67.7587 78.5009 66.1477 79.364 64.8134 80.7303C64.49 81.5964 64.5562 82.4151 65.012 83.1867C65.8898 83.6262 66.8166 83.759 67.7926 83.5851C71.5837 82.358 75.4235 81.318 79.312 80.4647C79.7278 80.7267 80.125 81.0144 80.5037 81.3278C76.3329 85.1562 72.162 88.9848 67.9912 92.8133C67.9876 90.3683 67.4138 88.0667 66.2699 85.9087C65.0312 83.5118 63.5307 81.2987 61.7681 79.2697C61.6891 75.7128 60.6299 72.4819 58.5903 69.5768C57.3025 68.0416 55.6916 67.0235 53.7574 66.5228C52.302 66.6755 51.6619 67.4722 51.8375 68.9129C52.0548 69.6147 52.4079 70.2344 52.8968 70.7718C55.8935 73.2901 58.6741 76.0343 61.2384 79.0042C61.2605 79.5131 61.1724 79.9999 60.9736 80.4647C55.6144 78.7284 50.2519 77.0022 44.8861 75.2863C46.58 74.3631 48.0145 73.1239 49.1894 71.5685C51.0836 68.9206 52.562 66.0436 53.625 62.9378C54.5763 62.4389 55.4591 61.8414 56.2732 61.1452C57.8374 59.6657 59.0953 57.9616 60.0468 56.0332C60.7257 54.2798 60.9463 52.4651 60.7088 50.5892C59.814 48.4459 58.5781 48.2245 57.0014 49.9253C56.7076 50.426 56.487 50.9571 56.3394 51.5187C55.6355 55.3157 54.6424 59.0335 53.3602 62.6722C52.9313 62.8321 52.512 63.0092 52.1023 63.2033C50.8243 57.6356 49.6327 52.0588 48.5273 46.473C49.9371 47.461 51.5038 48.0586 53.2278 48.2656C56.6198 48.6036 59.9962 48.493 63.3569 47.9336C66.4209 49.6503 69.7091 50.3364 73.2213 49.9917C74.7963 49.7329 76.2085 49.1132 77.4583 48.1328C78.364 47.4895 78.695 46.6264 78.4514 45.5436C78.2087 45.1231 77.8777 44.7911 77.4583 44.5477C76.6198 44.4592 75.7811 44.4592 74.9426 44.5477C71.3299 45.8144 67.6446 46.8103 63.8866 47.5353C63.381 47.4042 62.9618 47.1387 62.6287 46.7386C66.7802 42.885 70.9289 39.0344 75.075 35.1867Z" fill="#FEFFFE"/>
</svg>
